<svg width="30" height="30" viewBox="0 0 100 100" fill="#e5e7eb" xmlns="http://www.w3.org/2000/svg" class="logo-icon">
    <g clip-path="url(#clip0_1108_4)">
    <path fill-rule="evenodd" clip-rule="evenodd" d="M50 100C56.5661 100 63.0679 98.7067 69.1342 96.194C75.2005 93.6812 80.7124 89.9983 85.3553 85.3553C89.9983 80.7124 93.6812 75.2005 96.194 69.1342C98.7067 63.0679 100 56.5661 100 50C100 43.4339 98.7067 36.9321 96.194 30.8658C93.6812 24.7995 89.9983 19.2876 85.3553 14.6447C80.7124 10.0017 75.2005 6.31876 69.1342 3.80602C63.0679 1.29329 56.5661 -9.78424e-08 50 0C36.7392 1.97602e-07 24.0215 5.26784 14.6447 14.6447C5.26784 24.0215 0 36.7392 0 50C0 63.2608 5.26784 75.9785 14.6447 85.3553C24.0215 94.7322 36.7392 100 50 100ZM66.1849 8.13576C68.1336 10.2306 69.8928 12.6719 71.4355 15.3621C74.2665 20.2609 76.475 26.134 77.9041 32.6296C80.1523 33.1926 82.2561 33.8205 84.2156 34.5134C87.8315 35.7963 91.009 37.3119 93.526 39.0603C91.7681 32.0975 88.3687 25.6568 83.6121 20.2767C78.8555 14.8966 72.8798 10.7336 66.1849 8.13576ZM94.1756 57.9138C91.5611 59.8571 88.1509 61.5297 84.2156 62.9209C82.4185 63.556 80.4951 64.137 78.4454 64.6638C77.0705 72.2421 74.6563 79.0625 71.4409 84.6379C69.9639 87.2352 68.2009 89.659 66.1849 91.8642C73.3703 89.0807 79.7191 84.4958 84.6209 78.5502C89.5228 72.6046 92.8131 65.4982 94.1756 57.9138ZM33.8205 91.8642C31.8026 89.6593 30.0378 87.2354 28.5591 84.6379C25.3491 79.0625 22.9295 72.2421 21.5546 64.6638C19.6072 64.1655 17.682 63.584 15.7843 62.9209C11.8491 61.5297 8.43889 59.8571 5.8244 57.9138C7.18688 65.4982 10.4772 72.6046 15.3791 78.5502C20.2809 84.4958 26.6351 89.0807 33.8205 91.8642ZM6.46855 39.0549C8.9856 37.3119 12.163 35.7963 15.7789 34.5134C17.7384 33.8241 19.8423 33.1962 22.0905 32.6296C23.5195 26.134 25.728 20.2609 28.5536 15.3621C30.0307 12.7648 31.7936 10.341 33.8097 8.13576C27.1174 10.7345 21.1444 14.8973 16.3897 20.2763C11.6351 25.6553 8.23696 32.0942 6.47938 39.0549M66.9969 17.9171C69.2108 21.7603 71.035 26.3289 72.3503 31.428C65.8187 30.2512 59.2018 29.6104 52.5658 29.5117V5.64036C57.8597 6.66883 62.9479 10.891 66.9969 17.9171ZM73.5141 36.8843C66.6159 35.4886 59.603 34.7366 52.5658 34.6379V62.7964C60.3984 62.6448 67.6789 61.8058 73.9201 60.4688C74.3784 57.1055 74.6094 53.6159 74.613 50C74.613 45.426 74.2286 41.0252 73.5141 36.8843ZM47.4342 5.63495V29.5063C40.7998 29.607 34.1848 30.2497 27.6551 31.428C28.965 26.3289 30.7946 21.7549 33.0031 17.9171C37.0521 10.8964 42.1403 6.66883 47.4342 5.63495ZM47.4342 34.6379C40.397 34.7366 33.3841 35.4886 26.4859 36.8843C25.7479 41.2171 25.3803 45.6048 25.387 50C25.387 53.6105 25.6252 57.1127 26.0799 60.4634C32.3211 61.8058 39.6016 62.6448 47.4342 62.791V34.6379ZM17.4949 39.3472C18.6316 38.9502 19.8279 38.5713 21.0837 38.2105C20.0993 45.1429 19.9865 52.1713 20.7481 59.1318C19.6113 58.7961 18.5269 58.4479 17.4949 58.087C13.381 56.6309 10.2414 54.9637 8.17365 53.237C6.08964 51.4994 5.38595 49.9621 5.38595 48.7171C5.38595 47.4721 6.08964 45.9348 8.17365 44.1973C10.2414 42.4705 13.381 40.8033 17.4949 39.3526M33.0031 82.0883C30.4103 77.5847 28.3479 72.0743 27.0218 65.8926C33.1818 67.0781 40.1104 67.7926 47.4342 67.9279V94.3705C42.1403 93.3366 37.0521 89.1144 33.0031 82.0883ZM52.5658 94.365V67.9171C59.4152 67.8165 66.2438 67.1356 72.9782 65.8818C71.6575 72.0689 69.5897 77.5739 66.9969 82.0775C62.9479 89.0982 57.8597 93.3312 52.5658 94.365ZM79.7391 50C79.7391 53.1179 79.5767 56.1618 79.2519 59.1318C80.3886 58.7998 81.4731 58.4515 82.5051 58.087C86.619 56.6309 89.7586 54.9637 91.8263 53.237C93.9104 51.4994 94.6141 49.9621 94.6141 48.7171C94.6141 47.4721 93.9104 45.9348 91.8263 44.1973C89.7586 42.4705 86.619 40.8033 82.5051 39.3526C81.3684 38.952 80.1721 38.5713 78.9163 38.2105C79.4576 41.9996 79.7445 45.9457 79.7445 50"/>
    </g>
    <defs>
    <clipPath id="clip0_1108_4">
    <rect width="100" height="100" fill="white"/>
    </clipPath>
    </defs>
</svg>