<svg width="20" height="20" viewBox="0 0 100 100" fill="none" xmlns="http://www.w3.org/2000/svg">
<path d="M88.5418 50C88.5418 60.2219 84.4812 70.0252 77.2532 77.2531C70.0253 84.4811 60.2221 88.5417 50.0002 88.5417V94.7917C74.7377 94.7917 94.7918 74.7375 94.7918 50H88.5418ZM50.0002 88.5417C39.7783 88.5417 29.9751 84.4811 22.7471 77.2531C15.5191 70.0252 11.4585 60.2219 11.4585 50H5.2085C5.2085 74.7375 25.2627 94.7917 50.0002 94.7917V88.5417ZM11.4585 50C11.4585 39.7782 15.5191 29.9749 22.7471 22.747C29.9751 15.519 39.7783 11.4584 50.0002 11.4584V5.20837C25.2627 5.20837 5.2085 25.2625 5.2085 50H11.4585ZM64.5835 59.375C58.2294 59.375 52.1355 56.8509 47.6424 52.3578C43.1493 47.8647 40.6252 41.7709 40.6252 35.4167H34.3752C34.3752 43.4285 37.5578 51.1121 43.223 56.7772C48.8881 62.4424 56.5718 65.625 64.5835 65.625V59.375ZM85.1043 47.7875C82.9723 51.3236 79.9626 54.2486 76.3671 56.2788C72.7717 58.3091 68.7126 59.3756 64.5835 59.375V65.625C69.7893 65.6266 74.9071 64.2828 79.4406 61.724C83.9741 59.1653 87.7694 55.4783 90.4585 51.0209L85.1043 47.7875ZM40.6252 35.4167C40.6246 31.2876 41.6911 27.2285 43.7214 23.6331C45.7516 20.0376 48.6766 17.0279 52.2127 14.8959L48.9793 9.54587C44.5225 12.2346 40.8359 16.0292 38.2772 20.562C35.7185 25.0947 34.3743 30.2116 34.3752 35.4167H40.6252ZM50.0002 11.4584C49.7908 11.4543 49.5843 11.4088 49.3926 11.3244C49.2009 11.24 49.0279 11.1184 48.8835 10.9667C48.7078 10.7903 48.5889 10.5654 48.5418 10.3209C48.5252 10.1917 48.5335 9.81671 48.9793 9.54587L52.2127 14.8959C54.3085 13.6292 54.9835 11.3084 54.7377 9.48337C54.4793 7.58754 52.9877 5.20837 50.0002 5.20837V11.4584ZM90.4585 51.0209C90.1835 51.4667 89.8085 51.475 89.6793 51.4584C89.4348 51.4114 89.2099 51.2924 89.0335 51.1167C88.8818 50.9723 88.7602 50.7993 88.6758 50.6076C88.5914 50.416 88.5459 50.2094 88.5418 50H94.7918C94.7918 47.0125 92.4127 45.5209 90.5168 45.2625C88.6918 45.0167 86.371 45.6917 85.1043 47.7875L90.4585 51.0209Z" fill="black"/>
</svg>
