<svg width="20" height="20" viewBox="0 0 100 100" fill="#e5e7eb" xmlns="http://www.w3.org/2000/svg">
<path d="M49.9999 79.1667C51.105 79.1667 52.1648 79.6057 52.9462 80.3871C53.7276 81.1685 54.1666 82.2283 54.1666 83.3334V87.5C54.1666 88.6051 53.7276 89.6649 52.9462 90.4463C52.1648 91.2277 51.105 91.6667 49.9999 91.6667C48.8949 91.6667 47.8351 91.2277 47.0537 90.4463C46.2723 89.6649 45.8333 88.6051 45.8333 87.5V83.3334C45.8333 82.2283 46.2723 81.1685 47.0537 80.3871C47.8351 79.6057 48.8949 79.1667 49.9999 79.1667ZM76.5166 70.625L79.4624 73.5709C80.2214 74.3567 80.6414 75.4092 80.6319 76.5017C80.6224 77.5942 80.1842 78.6393 79.4117 79.4118C78.6391 80.1843 77.5941 80.6225 76.5016 80.632C75.4091 80.6415 74.3566 80.2215 73.5708 79.4625L70.6249 76.5167C69.8659 75.7309 69.446 74.6784 69.4555 73.5859C69.465 72.4934 69.9032 71.4483 70.6757 70.6758C71.4482 69.9033 72.4933 69.4651 73.5858 69.4556C74.6783 69.4461 75.7308 69.8661 76.5166 70.625ZM23.4833 70.625C24.2331 69.8778 25.2393 69.4439 26.2974 69.4116C27.3555 69.3793 28.3862 69.7509 29.1803 70.4511C29.9743 71.1512 30.472 72.1273 30.5724 73.1812C30.6728 74.235 30.3683 75.2876 29.7208 76.125L29.3749 76.5167L26.4291 79.4625C25.6793 80.2098 24.6731 80.6437 23.615 80.676C22.5569 80.7083 21.5261 80.3366 20.7321 79.6365C19.9381 78.9364 19.4403 77.9602 19.3399 76.9064C19.2396 75.8526 19.5441 74.8 20.1916 73.9625L20.5374 73.5709L23.4833 70.625ZM49.9999 25C56.6304 25 62.9892 27.634 67.6776 32.3224C72.366 37.0108 74.9999 43.3696 74.9999 50C74.9999 56.6305 72.366 62.9893 67.6776 67.6777C62.9892 72.3661 56.6304 75 49.9999 75C43.3695 75 37.0107 72.3661 32.3223 67.6777C27.6339 62.9893 24.9999 56.6305 24.9999 50C24.9999 43.3696 27.6339 37.0108 32.3223 32.3224C37.0107 27.634 43.3695 25 49.9999 25ZM49.9999 33.3334C45.5797 33.3334 41.3404 35.0893 38.2148 38.2149C35.0892 41.3405 33.3333 45.5798 33.3333 50C33.3333 54.4203 35.0892 58.6596 38.2148 61.7852C41.3404 64.9108 45.5797 66.6667 49.9999 66.6667C54.4202 66.6667 58.6594 64.9108 61.7851 61.7852C64.9107 58.6596 66.6666 54.4203 66.6666 50C66.6666 45.5798 64.9107 41.3405 61.7851 38.2149C58.6594 35.0893 54.4202 33.3334 49.9999 33.3334ZM16.6666 45.8334C17.7286 45.8346 18.7501 46.2412 19.5223 46.9702C20.2945 47.6993 20.7593 48.6957 20.8215 49.7559C20.8837 50.816 20.5388 51.86 19.8572 52.6743C19.1755 53.4887 18.2087 54.0121 17.1541 54.1375L16.6666 54.1667H12.4999C11.4379 54.1655 10.4165 53.7589 9.64424 53.0298C8.87201 52.3008 8.4073 51.3044 8.34506 50.2442C8.28282 49.1841 8.62775 48.1401 9.30938 47.3257C9.991 46.5114 10.9579 45.988 12.0124 45.8625L12.4999 45.8334H16.6666ZM87.4999 45.8334C88.605 45.8334 89.6648 46.2724 90.4462 47.0538C91.2276 47.8352 91.6666 48.895 91.6666 50C91.6666 51.1051 91.2276 52.1649 90.4462 52.9463C89.6648 53.7277 88.605 54.1667 87.4999 54.1667H83.3333C82.2282 54.1667 81.1684 53.7277 80.387 52.9463C79.6056 52.1649 79.1666 51.1051 79.1666 50C79.1666 48.895 79.6056 47.8352 80.387 47.0538C81.1684 46.2724 82.2282 45.8334 83.3333 45.8334H87.4999ZM20.5374 20.5375C21.2549 19.8201 22.2095 19.3892 23.2221 19.3255C24.2347 19.2618 25.2358 19.5698 26.0374 20.1917L26.4291 20.5375L29.3749 23.4834C30.1222 24.2332 30.5561 25.2394 30.5884 26.2975C30.6207 27.3556 30.249 28.3863 29.5489 29.1804C28.8488 29.9744 27.8726 30.4721 26.8188 30.5725C25.765 30.6729 24.7124 30.3684 23.8749 29.7209L23.4833 29.375L20.5374 26.4292C19.7563 25.6478 19.3175 24.5882 19.3175 23.4834C19.3175 22.3785 19.7563 21.3189 20.5374 20.5375ZM79.4624 20.5375C80.2436 21.3189 80.6824 22.3785 80.6824 23.4834C80.6824 24.5882 80.2436 25.6478 79.4624 26.4292L76.5166 29.375C76.1322 29.773 75.6725 30.0904 75.1641 30.3088C74.6558 30.5272 74.109 30.6421 73.5558 30.6469C73.0025 30.6517 72.4539 30.5463 71.9418 30.3368C71.4297 30.1273 70.9645 29.8179 70.5733 29.4267C70.1821 29.0355 69.8727 28.5703 69.6632 28.0582C69.4537 27.5461 69.3482 26.9975 69.3531 26.4442C69.3579 25.891 69.4728 25.3442 69.6912 24.8359C69.9096 24.3275 70.227 23.8677 70.6249 23.4834L73.5708 20.5375C74.3521 19.7564 75.4118 19.3176 76.5166 19.3176C77.6215 19.3176 78.6811 19.7564 79.4624 20.5375ZM49.9999 8.33337C51.105 8.33337 52.1648 8.77236 52.9462 9.55376C53.7276 10.3352 54.1666 11.395 54.1666 12.5V16.6667C54.1666 17.7718 53.7276 18.8316 52.9462 19.613C52.1648 20.3944 51.105 20.8334 49.9999 20.8334C48.8949 20.8334 47.8351 20.3944 47.0537 19.613C46.2723 18.8316 45.8333 17.7718 45.8333 16.6667V12.5C45.8333 11.395 46.2723 10.3352 47.0537 9.55376C47.8351 8.77236 48.8949 8.33337 49.9999 8.33337Z"/>
</svg>
